<?xml version="1.0" encoding="UTF-8" standalone="no"?><svg xmlns="http://www.w3.org/2000/svg" xmlns:xlink="http://www.w3.org/1999/xlink" contentScriptType="application/ecmascript" contentStyleType="text/css" height="1104px" preserveAspectRatio="none" style="width:1166px;height:1104px;" version="1.1" viewBox="0 0 1166 1104" width="1166px" zoomAndPan="magnify"><defs/><g><!--MD5=[a6f11bb19cee6b13000111f5ad685e8b]
cluster Dependencies--><path d="M978,363 L1072,363 A4.5,4.5 0 0 1 1075,366 L1082,383.4844 L1151,383.4844 A3,3 0 0 1 1154,386.4844 L1154,708 A3,3 0 0 1 1151,711 L978,711 A3,3 0 0 1 975,708 L975,366 A3,3 0 0 1 978,363 " fill="#FFFFFF" style="stroke: #000000; stroke-width: 1.5;"/><line style="stroke: #000000; stroke-width: 1.5;" x1="975" x2="1082" y1="383.4844" y2="383.4844"/><text fill="#000000" font-family="Tahoma, sans-serif" font-size="12" font-weight="bold" lengthAdjust="spacingAndGlyphs" textLength="94" x="979" y="377.0059">Dependencies</text><!--MD5=[d2f2d86662928ac3fb397ad954fa1bf1]
entity esm--><rect fill="#F8F8F8" height="34.4844" rx="3" ry="3" style="stroke: #383838; stroke-width: 1.0;" width="45" x="1042" y="502"/><rect fill="#F8F8F8" height="5" style="stroke: #383838; stroke-width: 1.0;" width="10" x="1037" y="507"/><rect fill="#F8F8F8" height="5" style="stroke: #383838; stroke-width: 1.0;" width="10" x="1037" y="526.4844"/><text fill="#000000" font-family="Tahoma, sans-serif" font-size="12" lengthAdjust="spacingAndGlyphs" textLength="25" x="1052" y="524.0059">esm</text><!--MD5=[2431bec11d6fdba4d3ef7211bd2429ca]
entity nengi--><rect fill="#F8F8F8" height="34.4844" rx="3" ry="3" style="stroke: #383838; stroke-width: 1.0;" width="51" x="1039" y="608"/><rect fill="#F8F8F8" height="5" style="stroke: #383838; stroke-width: 1.0;" width="10" x="1034" y="613"/><rect fill="#F8F8F8" height="5" style="stroke: #383838; stroke-width: 1.0;" width="10" x="1034" y="632.4844"/><text fill="#000000" font-family="Tahoma, sans-serif" font-size="12" lengthAdjust="spacingAndGlyphs" textLength="31" x="1049" y="630.0059">nengi</text><!--MD5=[6655d3e1728b2e7b149324d40db45efa]
entity pixi--><rect fill="#F8F8F8" height="34.4844" rx="3" ry="3" style="stroke: #383838; stroke-width: 1.0;" width="39" x="1045" y="661"/><rect fill="#F8F8F8" height="5" style="stroke: #383838; stroke-width: 1.0;" width="10" x="1040" y="666"/><rect fill="#F8F8F8" height="5" style="stroke: #383838; stroke-width: 1.0;" width="10" x="1040" y="685.4844"/><text fill="#000000" font-family="Tahoma, sans-serif" font-size="12" lengthAdjust="spacingAndGlyphs" textLength="19" x="1055" y="683.0059">pixi</text><!--MD5=[be3e24a76e4c6898d6956a488b3af49b]
entity sat--><rect fill="#F8F8F8" height="34.4844" rx="3" ry="3" style="stroke: #383838; stroke-width: 1.0;" width="38" x="1045.5" y="555"/><rect fill="#F8F8F8" height="5" style="stroke: #383838; stroke-width: 1.0;" width="10" x="1040.5" y="560"/><rect fill="#F8F8F8" height="5" style="stroke: #383838; stroke-width: 1.0;" width="10" x="1040.5" y="579.4844"/><text fill="#000000" font-family="Tahoma, sans-serif" font-size="12" lengthAdjust="spacingAndGlyphs" textLength="18" x="1055.5" y="577.0059">sat</text><!--MD5=[2e7044caff40cdbfe03e01f8469135bc]
entity terser-webpack-plugin--><rect fill="#F8F8F8" height="34.4844" rx="3" ry="3" style="stroke: #383838; stroke-width: 1.0;" width="147" x="991" y="449"/><rect fill="#F8F8F8" height="5" style="stroke: #383838; stroke-width: 1.0;" width="10" x="986" y="454"/><rect fill="#F8F8F8" height="5" style="stroke: #383838; stroke-width: 1.0;" width="10" x="986" y="473.4844"/><text fill="#000000" font-family="Tahoma, sans-serif" font-size="12" lengthAdjust="spacingAndGlyphs" textLength="127" x="1001" y="471.0059">terser-webpack-plugin</text><!--MD5=[642f6d308c635d92f0bfa01fc3c926c9]
entity webpack-merge--><rect fill="#F8F8F8" height="34.4844" rx="3" ry="3" style="stroke: #383838; stroke-width: 1.0;" width="111" x="1009" y="396"/><rect fill="#F8F8F8" height="5" style="stroke: #383838; stroke-width: 1.0;" width="10" x="1004" y="401"/><rect fill="#F8F8F8" height="5" style="stroke: #383838; stroke-width: 1.0;" width="10" x="1004" y="420.4844"/><text fill="#000000" font-family="Tahoma, sans-serif" font-size="12" lengthAdjust="spacingAndGlyphs" textLength="91" x="1019" y="418.0059">webpack-merge</text><ellipse cx="536.1505" cy="911.1301" fill="#F8F8F8" rx="61.1505" ry="14.6301" style="stroke: #383838; stroke-width: 0.5;"/><text fill="#000000" font-family="Tahoma, sans-serif" font-size="12" lengthAdjust="spacingAndGlyphs" textLength="91" x="490.6505" y="914.8723">BackgroundGrid</text><ellipse cx="204.0563" cy="287.242" fill="#F8F8F8" rx="18.5563" ry="13.242" style="stroke: #383838; stroke-width: 0.5;"/><text fill="#000000" font-family="Tahoma, sans-serif" font-size="12" font-weight="bold" lengthAdjust="spacingAndGlyphs" textLength="22" x="193.0563" y="290.9842">bot</text><ellipse cx="56.3762" cy="768.242" fill="#F8F8F8" rx="50.3762" ry="13.242" style="stroke: #383838; stroke-width: 0.5;"/><text fill="#000000" font-family="Tahoma, sans-serif" font-size="12" font-weight="bold" lengthAdjust="spacingAndGlyphs" textLength="67" x="22.8762" y="771.9842">clientMain</text><ellipse cx="718.9363" cy="368.7873" fill="#F8F8F8" rx="61.9363" ry="14.7873" style="stroke: #383838; stroke-width: 0.5;"/><text fill="#000000" font-family="Tahoma, sans-serif" font-size="12" lengthAdjust="spacingAndGlyphs" textLength="93" x="672.4363" y="372.5294">CollisionSystem</text><ellipse cx="357.9558" cy="369.7912" fill="#F8F8F8" rx="56.9558" ry="13.7912" style="stroke: #383838; stroke-width: 0.5;"/><text fill="#000000" font-family="Tahoma, sans-serif" font-size="12" lengthAdjust="spacingAndGlyphs" textLength="80" x="317.9558" y="373.5334">damagePlayer</text><ellipse cx="535.9845" cy="578.8969" fill="#F8F8F8" rx="59.9845" ry="14.3969" style="stroke: #383838; stroke-width: 0.5;"/><text fill="#000000" font-family="Tahoma, sans-serif" font-size="12" lengthAdjust="spacingAndGlyphs" textLength="88" x="491.9845" y="582.6391">entity/Obstacle</text><ellipse cx="536.2321" cy="504.9464" fill="#F8F8F8" rx="75.2321" ry="17.4464" style="stroke: #383838; stroke-width: 0.5;"/><text fill="#000000" font-family="Tahoma, sans-serif" font-size="12" lengthAdjust="spacingAndGlyphs" textLength="125" x="473.7321" y="508.6886">entity/PlayerCharacter</text><ellipse cx="536.0862" cy="824.2172" fill="#F8F8F8" rx="56.5862" ry="13.7172" style="stroke: #383838; stroke-width: 0.5;"/><text fill="#000000" font-family="Tahoma, sans-serif" font-size="12" lengthAdjust="spacingAndGlyphs" textLength="79" x="496.5862" y="827.9594">FireCommand</text><ellipse cx="357.9264" cy="246.242" fill="#F8F8F8" rx="45.4264" ry="13.242" style="stroke: #383838; stroke-width: 0.5;"/><text fill="#000000" font-family="Tahoma, sans-serif" font-size="12" lengthAdjust="spacingAndGlyphs" textLength="60" x="327.9264" y="249.9842">followPath</text><ellipse cx="56.669" cy="813.242" fill="#F8F8F8" rx="49.669" ry="13.242" style="stroke: #383838; stroke-width: 0.5;"/><text fill="#000000" font-family="Tahoma, sans-serif" font-size="12" lengthAdjust="spacingAndGlyphs" textLength="66" x="23.669" y="816.9842">GameClient</text><ellipse cx="203.8344" cy="413.1669" fill="#F8F8F8" rx="58.8344" ry="14.1669" style="stroke: #383838; stroke-width: 0.5;"/><text fill="#000000" font-family="Tahoma, sans-serif" font-size="12" lengthAdjust="spacingAndGlyphs" textLength="85" x="161.3344" y="416.9091">GameInstance</text><ellipse cx="536.189" cy="999.8378" fill="#F8F8F8" rx="67.189" ry="15.8378" style="stroke: #383838; stroke-width: 0.5;"/><text fill="#000000" font-family="Tahoma, sans-serif" font-size="12" lengthAdjust="spacingAndGlyphs" textLength="106" x="483.189" y="1003.58">graphics/Obstacle</text><ellipse cx="536.1466" cy="1054.0293" fill="#F8F8F8" rx="83.1466" ry="19.0293" style="stroke: #383838; stroke-width: 0.5;"/><text fill="#000000" font-family="Tahoma, sans-serif" font-size="12" lengthAdjust="spacingAndGlyphs" textLength="143" x="464.6466" y="1057.7715">graphics/PlayerCharacter</text><ellipse cx="719.0477" cy="1075.242" fill="#F8F8F8" rx="47.5477" ry="13.242" style="stroke: #383838; stroke-width: 0.5;"/><text fill="#000000" font-family="Tahoma, sans-serif" font-size="12" lengthAdjust="spacingAndGlyphs" textLength="63" x="687.5477" y="1078.9842">HitpointBar</text><ellipse cx="535.9056" cy="455.242" fill="#F8F8F8" rx="33.4056" ry="13.242" style="stroke: #383838; stroke-width: 0.5;"/><text fill="#000000" font-family="Tahoma, sans-serif" font-size="12" lengthAdjust="spacingAndGlyphs" textLength="43" x="514.4056" y="458.9842">Identity</text><ellipse cx="357.9148" cy="812.783" fill="#F8F8F8" rx="54.4148" ry="13.283" style="stroke: #383838; stroke-width: 0.5;"/><text fill="#000000" font-family="Tahoma, sans-serif" font-size="12" lengthAdjust="spacingAndGlyphs" textLength="73" x="321.4148" y="816.5251">InputSystem</text><ellipse cx="535.8714" cy="722.9743" fill="#F8F8F8" rx="60.3714" ry="14.4743" style="stroke: #383838; stroke-width: 0.5;"/><text fill="#000000" font-family="Tahoma, sans-serif" font-size="12" lengthAdjust="spacingAndGlyphs" textLength="89" x="491.3714" y="726.7165">MoveCommand</text><ellipse cx="358.0833" cy="572.242" fill="#F8F8F8" rx="51.0833" ry="13.242" style="stroke: #383838; stroke-width: 0.5;"/><text fill="#000000" font-family="Tahoma, sans-serif" font-size="12" lengthAdjust="spacingAndGlyphs" textLength="68" x="324.0833" y="575.9842">nengiConfig</text><ellipse cx="357.771" cy="976.8542" fill="#F8F8F8" rx="54.771" ry="13.3542" style="stroke: #383838; stroke-width: 0.5;"/><text fill="#000000" font-family="Tahoma, sans-serif" font-size="12" lengthAdjust="spacingAndGlyphs" textLength="74" x="320.771" y="980.5964">PIXIRenderer</text><ellipse cx="56.4914" cy="267.242" fill="#F8F8F8" rx="31.9914" ry="13.242" style="stroke: #383838; stroke-width: 0.5;"/><text fill="#000000" font-family="Tahoma, sans-serif" font-size="12" font-weight="bold" lengthAdjust="spacingAndGlyphs" textLength="41" x="35.9914" y="270.9842">server</text><ellipse cx="56.6335" cy="413.242" fill="#F8F8F8" rx="46.1335" ry="13.242" style="stroke: #383838; stroke-width: 0.5;"/><text fill="#000000" font-family="Tahoma, sans-serif" font-size="12" lengthAdjust="spacingAndGlyphs" textLength="61" x="26.1335" y="416.9842">serverMain</text><ellipse cx="203.8909" cy="813.242" fill="#F8F8F8" rx="41.8909" ry="13.242" style="stroke: #383838; stroke-width: 0.5;"/><text fill="#000000" font-family="Tahoma, sans-serif" font-size="12" lengthAdjust="spacingAndGlyphs" textLength="55" x="176.3909" y="816.9842">Simulator</text><ellipse cx="536.0087" cy="774.1017" fill="#F8F8F8" rx="73.5087" ry="17.1017" style="stroke: #383838; stroke-width: 0.5;"/><text fill="#000000" font-family="Tahoma, sans-serif" font-size="12" lengthAdjust="spacingAndGlyphs" textLength="121" x="475.5087" y="777.8439">SpecialFireCommand</text><ellipse cx="204.098" cy="614.242" fill="#F8F8F8" rx="42.598" ry="13.242" style="stroke: #383838; stroke-width: 0.5;"/><text fill="#000000" font-family="Tahoma, sans-serif" font-size="12" lengthAdjust="spacingAndGlyphs" textLength="56" x="176.098" y="617.9842">stressBot</text><ellipse cx="535.771" cy="328.8542" fill="#F8F8F8" rx="54.771" ry="13.3542" style="stroke: #383838; stroke-width: 0.5;"/><text fill="#000000" font-family="Tahoma, sans-serif" font-size="12" lengthAdjust="spacingAndGlyphs" textLength="74" x="498.771" y="332.5964">WeaponFired</text><ellipse cx="718.7601" cy="457.052" fill="#F8F8F8" rx="60.7601" ry="14.552" style="stroke: #383838; stroke-width: 0.5;"/><text fill="#000000" font-family="Tahoma, sans-serif" font-size="12" lengthAdjust="spacingAndGlyphs" textLength="90" x="673.7601" y="460.7942">WeaponSystem</text><ellipse cx="885.7768" cy="119.7554" fill="#F8F8F8" rx="66.7768" ry="15.7554" style="stroke: #383838; stroke-width: 0.5;"/><text fill="#000000" font-family="Tahoma, sans-serif" font-size="12" lengthAdjust="spacingAndGlyphs" textLength="105" x="833.2768" y="123.4976">webpack.common</text><ellipse cx="885.9548" cy="22.091" fill="#F8F8F8" rx="58.4548" ry="14.091" style="stroke: #383838; stroke-width: 0.5;"/><text fill="#000000" font-family="Tahoma, sans-serif" font-size="12" font-weight="bold" lengthAdjust="spacingAndGlyphs" textLength="84" x="843.9548" y="25.8331">webpack.dev</text><ellipse cx="886.1505" cy="70.1301" fill="#F8F8F8" rx="61.1505" ry="14.6301" style="stroke: #383838; stroke-width: 0.5;"/><text fill="#000000" font-family="Tahoma, sans-serif" font-size="12" font-weight="bold" lengthAdjust="spacingAndGlyphs" textLength="91" x="840.6505" y="73.8723">webpack.prod</text><!--MD5=[e8cc1a8c88ff06f569b0882d803d5369]
link BackgroundGrid to pixi--><path d="M581.668,920.722 C662.841,935.779 836.876,955.785 953,881 C1018.65,838.724 1048.34,743.428 1058.81,700.142 " fill="none" id="BackgroundGrid-&gt;pixi" style="stroke: #000000; stroke-width: 0.5;"/><polygon fill="#000000" points="1059.99,695.128,1054.0314,702.9699,1058.8426,699.9946,1061.8179,704.8057,1059.99,695.128" style="stroke: #000000; stroke-width: 0.5;"/><!--MD5=[1db9cb2311b7e1c8d8e4c442cd907b86]
link <b>bot</b> to esm--><path d="M216.111,276.983 C233.03,262.404 266.9,235.795 301,224 C399.645,189.88 430.621,204 535,204 C535,204 535,204 720,204 C843.643,204 888.658,250.417 953,356 C968.925,382.133 947.175,469.687 967,493 C983.962,512.946 1014.46,518.411 1036.64,519.537 " fill="none" id="&lt;b&gt;bot&lt;/b&gt;-&gt;esm" style="stroke: #000000; stroke-width: 1.0;"/><polygon fill="#000000" points="1041.8,519.729,1032.9548,515.3975,1036.8034,519.5433,1032.6577,523.392,1041.8,519.729" style="stroke: #000000; stroke-width: 1.0;"/><!--MD5=[5843802cd2934f1751967c3c0204bf3a]
link <b>bot</b> to stressBot--><path d="M192.946,297.868 C174.771,316.606 139.266,357.083 126,399.5 C114.259,437.04 105.3212,543.041 126,576.5 C134.445,590.165 149.441,598.957 164.043,604.562 " fill="none" id="&lt;b&gt;bot&lt;/b&gt;-&gt;stressBot" style="stroke: #000000; stroke-width: 1.0;"/><polygon fill="#000000" points="168.97,606.344,161.8665,599.522,164.268,604.6438,159.1461,607.0452,168.97,606.344" style="stroke: #000000; stroke-width: 1.0;"/><!--MD5=[463486bdb52bd316acfd74005004c6e5]
link <b>clientMain</b> to GameClient--><path d="M56.5,781.497 C56.5,785.928 56.5,790.359 56.5,794.79 " fill="none" id="&lt;b&gt;clientMain&lt;/b&gt;-&gt;GameClient" style="stroke: #000000; stroke-width: 1.0;"/><polygon fill="#000000" points="56.5,799.992,60.5,790.992,56.5,794.992,52.5,790.992,56.5,799.992" style="stroke: #000000; stroke-width: 1.0;"/><!--MD5=[a7db9d06c808507a0ffab4d61adfaafb]
link CollisionSystem to sat--><path d="M767.732,359.607 C820.917,352.196 905.642,350.047 953,399 C975.816,422.584 945.828,520.929 967,546 C984.826,567.109 1017.81,572.017 1040.2,572.712 " fill="none" id="CollisionSystem-&gt;sat" style="stroke: #000000; stroke-width: 0.5;"/><polygon fill="#000000" points="1045.37,572.804,1036.4399,568.6503,1040.3707,572.7183,1036.3027,576.6491,1045.37,572.804" style="stroke: #000000; stroke-width: 0.5;"/><!--MD5=[624ffe02bafb247226fad50ad293c88f]
link entity/Obstacle to nengi--><path d="M592.846,583.879 C703.794,593.573 948.593,614.961 1033.67,622.394 " fill="none" id="entity/Obstacle-&gt;nengi" style="stroke: #000000; stroke-width: 0.5;"/><polygon fill="#000000" points="1038.8,622.842,1030.1896,618.0607,1033.8196,622.3992,1029.4811,626.0293,1038.8,622.842" style="stroke: #000000; stroke-width: 0.5;"/><!--MD5=[7736611923d2a2c248ada58babcaeb0e]
link entity/Obstacle to sat--><path d="M596.118,578.214 C711.547,576.679 962.415,573.344 1040.09,572.311 " fill="none" id="entity/Obstacle-&gt;sat" style="stroke: #000000; stroke-width: 0.5;"/><polygon fill="#000000" points="1045.38,572.241,1036.3238,568.37,1040.3805,572.3124,1036.4381,576.3692,1045.38,572.241" style="stroke: #000000; stroke-width: 0.5;"/><!--MD5=[e149eb3408038df1d443d924b5d89169]
link entity/PlayerCharacter to CollisionSystem--><path d="M589.328,492.564 C599.657,488.815 610.056,484.038 619,478 C640.696,463.353 639.517,452.483 657,433 C671.028,417.366 687.489,400.159 699.774,387.528 " fill="none" id="entity/PlayerCharacter-&gt;CollisionSystem" style="stroke: #000000; stroke-width: 0.5;"/><polygon fill="#000000" points="703.445,383.762,694.2991,387.4161,699.9555,387.3429,700.0286,392.9993,703.445,383.762" style="stroke: #000000; stroke-width: 0.5;"/><!--MD5=[a998dc311abe265c48b3c2c0dacdb109]
link entity/PlayerCharacter to nengi--><path d="M594.131,516.132 C674.562,532.082 825.599,563.055 953,595 C959.277,596.574 960.765,597.269 967,599 C989.312,605.193 1014.59,611.995 1033.67,617.088 " fill="none" id="entity/PlayerCharacter-&gt;nengi" style="stroke: #000000; stroke-width: 0.5;"/><polygon fill="#000000" points="1038.88,618.477,1031.2114,612.297,1034.0482,617.1912,1029.154,620.028,1038.88,618.477" style="stroke: #000000; stroke-width: 0.5;"/><!--MD5=[e85264382f3910654eabbeaf03989014]
link entity/PlayerCharacter to sat--><path d="M602.087,513.283 C720.038,528.293 963.966,559.334 1040.21,569.036 " fill="none" id="entity/PlayerCharacter-&gt;sat" style="stroke: #000000; stroke-width: 0.5;"/><polygon fill="#000000" points="1045.4,569.697,1036.9743,564.5972,1040.4397,569.0684,1035.9685,572.5338,1045.4,569.697" style="stroke: #000000; stroke-width: 0.5;"/><!--MD5=[f02ccfd6b6050cbd431b9976e32d0a62]
link entity/PlayerCharacter to WeaponSystem--><path d="M586.459,491.884 C613.248,484.78 646.124,476.061 672.307,469.118 " fill="none" id="entity/PlayerCharacter-&gt;WeaponSystem" style="stroke: #000000; stroke-width: 0.5;"/><polygon fill="#000000" points="677.451,467.753,667.7264,466.1932,672.618,469.0345,669.7768,473.926,677.451,467.753" style="stroke: #000000; stroke-width: 0.5;"/><!--MD5=[9fb0a94bb3ccb4ea688c201def51d460]
link FireCommand to nengi--><path d="M575.07,833.851 C656.991,852.517 850.829,882.651 953,781 C973.441,760.663 948.357,673.998 967,652 C983.244,632.833 1011.87,626.699 1033.74,624.993 " fill="none" id="FireCommand-&gt;nengi" style="stroke: #000000; stroke-width: 0.5;"/><polygon fill="#000000" points="1038.86,624.663,1029.6264,621.2366,1033.8699,624.9773,1030.1292,629.2208,1038.86,624.663" style="stroke: #000000; stroke-width: 0.5;"/><!--MD5=[d4e83b2ecd8820f85c78de87782b18ac]
link GameClient to nengi--><path d="M85.0674,823.682 C129.634,840.317 220.639,871.678 301,883 C353.439,890.388 930.018,871.803 953,849 C984.155,818.088 939.251,686.003 967,652 C982.885,632.534 1011.56,626.439 1033.54,624.823 " fill="none" id="GameClient-&gt;nengi" style="stroke: #000000; stroke-width: 0.5;"/><polygon fill="#000000" points="1038.68,624.516,1029.4562,621.0633,1033.689,624.8161,1029.9363,629.0489,1038.68,624.516" style="stroke: #000000; stroke-width: 0.5;"/><!--MD5=[c0f4faa557d8745e5f173ff997d0a700]
link GameClient to nengiConfig--><path d="M90.6798,803.592 C96.8752,800.478 102.7335,796.378 107,791 C162.959,720.458 78.3904,652.587 145,592 C190.649,550.478 266.898,554.6 314.436,562.497 " fill="none" id="GameClient-&gt;nengiConfig" style="stroke: #000000; stroke-width: 0.5;"/><polygon fill="#000000" points="319.516,563.373,311.327,557.9012,314.5888,562.523,309.967,565.7848,319.516,563.373" style="stroke: #000000; stroke-width: 0.5;"/><!--MD5=[1815a579eb45525df6ac8caca2a448fa]
link GameClient to Simulator--><path d="M106.354,813 C122.524,813 140.465,813 156.456,813 " fill="none" id="GameClient-&gt;Simulator" style="stroke: #000000; stroke-width: 0.5;"/><polygon fill="#000000" points="161.799,813,152.799,809,156.799,813,152.799,817,161.799,813" style="stroke: #000000; stroke-width: 0.5;"/><!--MD5=[8be423784a9c58241ecb40b9167891f5]
link GameInstance to CollisionSystem--><path d="M259.9,408.291 C355.982,400.05 554.018,383.065 655.32,374.376 " fill="none" id="GameInstance-&gt;CollisionSystem" style="stroke: #000000; stroke-width: 0.5;"/><polygon fill="#000000" points="660.367,373.943,651.0582,370.7265,655.3853,374.3702,651.7416,378.6973,660.367,373.943" style="stroke: #000000; stroke-width: 0.5;"/><!--MD5=[095306949a88c8a0bd5f22ee62cdd35e]
link GameInstance to damagePlayer--><path d="M242.573,402.371 C264.477,396.174 292.16,388.343 314.811,381.935 " fill="none" id="GameInstance-&gt;damagePlayer" style="stroke: #000000; stroke-width: 0.5;"/><polygon fill="#000000" points="319.859,380.507,310.1103,379.1058,315.0475,381.867,312.2863,386.8042,319.859,380.507" style="stroke: #000000; stroke-width: 0.5;"/><!--MD5=[dd7e598fdc557f198acc12449bc92a36]
link GameInstance to entity/Obstacle--><path d="M223.153,426.517 C242.019,440.221 272.691,461.552 301,477 C367.946,513.532 450.628,547.041 497.638,565.083 " fill="none" id="GameInstance-&gt;entity/Obstacle" style="stroke: #000000; stroke-width: 0.5;"/><polygon fill="#000000" points="502.353,566.887,495.3771,559.9345,497.6833,565.1,492.5178,567.4061,502.353,566.887" style="stroke: #000000; stroke-width: 0.5;"/><!--MD5=[d710f1781688eefd194c3f28679684e7]
link GameInstance to entity/PlayerCharacter--><path d="M238.62,424.378 C256.976,430.458 280.151,437.922 301,444 C361.082,461.516 430.535,479.316 478.074,491.131 " fill="none" id="GameInstance-&gt;entity/PlayerCharacter" style="stroke: #000000; stroke-width: 0.5;"/><polygon fill="#000000" points="483.182,492.398,475.4104,486.3481,478.3292,491.1937,473.4835,494.1126,483.182,492.398" style="stroke: #000000; stroke-width: 0.5;"/><!--MD5=[da741b919d2cf3715f0a908f5aa4b9e9]
link GameInstance to followPath--><path d="M211.605,399.054 C225.06,371.893 258.038,311.303 301,274 C308.064,267.867 316.707,262.693 325.07,258.526 " fill="none" id="GameInstance-&gt;followPath" style="stroke: #000000; stroke-width: 0.5;"/><polygon fill="#000000" points="329.675,256.315,319.8304,256.605,325.1677,258.4794,323.2934,263.8167,329.675,256.315" style="stroke: #000000; stroke-width: 0.5;"/><!--MD5=[603168487726fc4838fbcefc4971bf2b]
link GameInstance to Identity--><path d="M254.297,420.437 C269.284,422.631 285.806,424.983 301,427 C370.711,436.252 452.295,445.702 498.385,450.914 " fill="none" id="GameInstance-&gt;Identity" style="stroke: #000000; stroke-width: 0.5;"/><polygon fill="#000000" points="503.553,451.497,495.059,446.5118,498.5846,450.9356,494.1608,454.4612,503.553,451.497" style="stroke: #000000; stroke-width: 0.5;"/><!--MD5=[7cf9d70e075ec96c6ef507f8ef0b6f75]
link GameInstance to nengi--><path d="M214.912,398.969 C230.533,378.106 263.04,339.491 301,322 C494.759,232.722 576.441,258.43 781,319 C864.327,343.673 905.744,339.068 953,412 C975.66,446.972 940.437,566.892 967,599 C982.973,618.308 1011.64,624.105 1033.59,625.491 " fill="none" id="GameInstance-&gt;nengi" style="stroke: #000000; stroke-width: 0.5;"/><polygon fill="#000000" points="1038.73,625.744,1029.935,621.3115,1033.7359,625.5011,1029.5463,629.302,1038.73,625.744" style="stroke: #000000; stroke-width: 0.5;"/><!--MD5=[d5c9f7558bb74567fbccf1a05f87e9c6]
link GameInstance to nengiConfig--><path d="M218.211,426.771 C230.497,439.911 248.964,460.532 263,480 C282.346,506.834 276.78,521.468 301,544 C307.393,549.947 315.287,554.919 323.112,558.942 " fill="none" id="GameInstance-&gt;nengiConfig" style="stroke: #000000; stroke-width: 0.5;"/><polygon fill="#000000" points="327.961,561.325,321.6487,553.7649,323.4738,559.1193,318.1195,560.9444,327.961,561.325" style="stroke: #000000; stroke-width: 0.5;"/><!--MD5=[19f2b8e3cef70d882aa83c9a5b5f0cb5]
link GameInstance to WeaponFired--><path d="M219.559,399.257 C237.256,383.501 268.77,358.384 301,347 C358.641,326.641 429.092,323.963 477.54,325.234 " fill="none" id="GameInstance-&gt;WeaponFired" style="stroke: #000000; stroke-width: 0.5;"/><polygon fill="#000000" points="482.747,325.388,473.8698,321.1223,477.7492,325.2394,473.6321,329.1188,482.747,325.388" style="stroke: #000000; stroke-width: 0.5;"/><!--MD5=[c8573e70f6321d5dee722935549b00b4]
link graphics/Obstacle to pixi--><path d="M601.608,1003.3663 C704.402,1007.4001 899.095,1009.23 953,969 C1041.74,902.775 1059.21,756.152 1062.66,700.246 " fill="none" id="graphics/Obstacle-&gt;pixi" style="stroke: #000000; stroke-width: 0.5;"/><polygon fill="#000000" points="1062.95,695.125,1058.4466,703.884,1062.6668,700.117,1066.4338,704.3371,1062.95,695.125" style="stroke: #000000; stroke-width: 0.5;"/><!--MD5=[5f488797b16f07dfcf478399bc0d7c3a]
link graphics/PlayerCharacter to HitpointBar--><path d="M610.359,1062.5112 C630.423,1064.8391 651.654,1067.3024 669.91,1069.4205 " fill="none" id="graphics/PlayerCharacter-&gt;HitpointBar" style="stroke: #000000; stroke-width: 0.5;"/><polygon fill="#000000" points="674.976,1070.0083,666.4964,1064.9986,670.0093,1069.4326,665.5753,1072.9454,674.976,1070.0083" style="stroke: #000000; stroke-width: 0.5;"/><!--MD5=[9aa02732f3b19986dfb0ab079658dd0f]
link graphics/PlayerCharacter to pixi--><path d="M616.145,1049.0136 C729.524,1041.1943 927.408,1024.772 953,1004 C1049.16,925.95 1062.05,760.619 1063.47,700.476 " fill="none" id="graphics/PlayerCharacter-&gt;pixi" style="stroke: #000000; stroke-width: 0.5;"/><polygon fill="#000000" points="1063.57,695.323,1059.3985,704.2448,1063.4743,700.3221,1067.397,704.3979,1063.57,695.323" style="stroke: #000000; stroke-width: 0.5;"/><!--MD5=[3b79fdc20e08ae5066427cf9fb28425a]
link HitpointBar to pixi--><path d="M758.836,1082.155 C809.602,1089.1412 898.454,1092.9168 953,1047 C1007.85,1000.8297 1048.33,773.147 1060.04,700.393 " fill="none" id="HitpointBar-&gt;pixi" style="stroke: #000000; stroke-width: 0.5;"/><polygon fill="#000000" points="1060.9,695.029,1055.532,703.2864,1060.1123,699.9666,1063.4321,704.5468,1060.9,695.029" style="stroke: #000000; stroke-width: 0.5;"/><!--MD5=[1a41be2ce801f67fcaa3bfd35070aec6]
link Identity to nengi--><path d="M561.325,446.414 C606.112,431.984 704.074,406.884 781,433 C872.246,463.978 894.422,488.488 953,565 C962.934,577.976 954.732,588.204 967,599 C985.372,615.168 1012.79,621.413 1033.71,623.761 " fill="none" id="Identity-&gt;nengi" style="stroke: #000000; stroke-width: 0.5;"/><polygon fill="#000000" points="1038.88,624.277,1030.3252,619.3969,1033.9051,623.7769,1029.5251,627.3568,1038.88,624.277" style="stroke: #000000; stroke-width: 0.5;"/><!--MD5=[1846e778bdc49f402aa78d0657cacc3e]
link MoveCommand to nengi--><path d="M591.127,729.095 C691.008,739.115 899.035,753.871 953,710 C973.576,693.272 948.589,671.085 967,652 C984.22,634.149 1012.19,627.807 1033.6,625.691 " fill="none" id="MoveCommand-&gt;nengi" style="stroke: #000000; stroke-width: 0.5;"/><polygon fill="#000000" points="1038.61,625.26,1029.3003,622.0462,1033.6284,625.6886,1029.986,630.0167,1038.61,625.26" style="stroke: #000000; stroke-width: 0.5;"/><!--MD5=[b823d479c2a8ca18cd13219e3fd50b96]
link nengiConfig to entity/Obstacle--><path d="M408.494,573.969 C427.99,574.744 450.626,575.644 471.317,576.467 " fill="none" id="nengiConfig-&gt;entity/Obstacle" style="stroke: #000000; stroke-width: 0.5;"/><polygon fill="#000000" points="476.532,576.675,467.6992,572.3182,471.536,576.475,467.3792,580.3118,476.532,576.675" style="stroke: #000000; stroke-width: 0.5;"/><!--MD5=[ef38d3483c1791d7c55766fad151e6fd]
link nengiConfig to entity/PlayerCharacter--><path d="M387.277,561.235 C415.34,550.552 458.744,534.029 491.254,521.653 " fill="none" id="nengiConfig-&gt;entity/PlayerCharacter" style="stroke: #000000; stroke-width: 0.5;"/><polygon fill="#000000" points="495.969,519.858,486.1346,519.3238,491.2965,521.6379,488.9824,526.7997,495.969,519.858" style="stroke: #000000; stroke-width: 0.5;"/><!--MD5=[9667ed4ad0c907ff2b4f75fa90190ed4]
link nengiConfig to FireCommand--><path d="M360.414,585.151 C365.331,624.235 385.269,740.706 453,801 C460.782,807.928 470.494,812.784 480.482,816.185 " fill="none" id="nengiConfig-&gt;FireCommand" style="stroke: #000000; stroke-width: 0.5;"/><polygon fill="#000000" points="485.401,817.74,478.0254,811.2131,480.6336,816.2328,475.6139,818.8409,485.401,817.74" style="stroke: #000000; stroke-width: 0.5;"/><!--MD5=[8f729521bb4531705622d833dda6569d]
link nengiConfig to Identity--><path d="M368.426,558.965 C383.823,538.624 416.348,499.447 453,478 C467.217,469.681 484.589,464.247 499.678,460.762 " fill="none" id="nengiConfig-&gt;Identity" style="stroke: #000000; stroke-width: 0.5;"/><polygon fill="#000000" points="504.7,459.653,495.0491,457.6884,499.8177,460.7315,496.7746,465.5001,504.7,459.653" style="stroke: #000000; stroke-width: 0.5;"/><!--MD5=[a258fd7d2201f57bfed6b6eebc816695]
link nengiConfig to MoveCommand--><path d="M373.264,584.583 C391.624,600.746 424.549,629.624 453,654 C473.71,671.744 497.587,691.789 514.214,705.684 " fill="none" id="nengiConfig-&gt;MoveCommand" style="stroke: #000000; stroke-width: 0.5;"/><polygon fill="#000000" points="518.279,709.078,513.9348,700.239,514.4412,705.8731,508.807,706.3795,518.279,709.078" style="stroke: #000000; stroke-width: 0.5;"/><!--MD5=[dae1442b537a3994c1468c7ce268d21e]
link nengiConfig to nengi--><path d="M385.636,582.965 C404.181,590.054 429.674,598.728 453,603 C672.915,643.273 944.608,632.138 1033.69,626.951 " fill="none" id="nengiConfig-&gt;nengi" style="stroke: #000000; stroke-width: 0.5;"/><polygon fill="#000000" points="1038.8,626.649,1029.5762,623.1962,1033.809,626.949,1030.0562,631.1817,1038.8,626.649" style="stroke: #000000; stroke-width: 0.5;"/><!--MD5=[cefbe46688796c1b6bcee651211c103a]
link nengiConfig to SpecialFireCommand--><path d="M362.388,585.131 C371.412,617.505 399.099,701.785 453,747 C459.782,752.689 467.799,757.19 476.121,760.749 " fill="none" id="nengiConfig-&gt;SpecialFireCommand" style="stroke: #000000; stroke-width: 0.5;"/><polygon fill="#000000" points="480.77,762.63,473.9293,755.5445,476.1355,760.7534,470.9267,762.9596,480.77,762.63" style="stroke: #000000; stroke-width: 0.5;"/><!--MD5=[432391e35fb3c220260b9bfef582ddaa]
link nengiConfig to WeaponFired--><path d="M367.249,559.136 C383.244,534.346 419.824,478.393 453,433 C475.895,401.674 504.236,366.457 520.896,346.091 " fill="none" id="nengiConfig-&gt;WeaponFired" style="stroke: #000000; stroke-width: 0.5;"/><polygon fill="#000000" points="524.067,342.221,515.2679,346.6455,520.8972,346.0879,521.4549,351.7172,524.067,342.221" style="stroke: #000000; stroke-width: 0.5;"/><!--MD5=[3796983169da76cb8a322ac8630ff203]
link PIXIRenderer to BackgroundGrid--><path d="M388.173,965.698 C406.712,958.548 431.233,949.149 453,941 C467.161,935.698 482.736,929.973 496.473,924.96 " fill="none" id="PIXIRenderer-&gt;BackgroundGrid" style="stroke: #000000; stroke-width: 0.5;"/><polygon fill="#000000" points="501.445,923.147,491.6193,922.4724,496.7476,924.86,494.36,929.9883,501.445,923.147" style="stroke: #000000; stroke-width: 0.5;"/><!--MD5=[7442dd18fe9fb31948a7e5a08ad7b5ec]
link PIXIRenderer to graphics/Obstacle--><path d="M407.093,983.285 C427.068,985.895 450.524,988.9606 471.857,991.7484 " fill="none" id="PIXIRenderer-&gt;graphics/Obstacle" style="stroke: #000000; stroke-width: 0.5;"/><polygon fill="#000000" points="476.944,992.4132,468.5374,987.282,471.9861,991.766,467.502,995.2147,476.944,992.4132" style="stroke: #000000; stroke-width: 0.5;"/><!--MD5=[5867eefb7340bc30a3e377787cd1775c]
link PIXIRenderer to graphics/PlayerCharacter--><path d="M380.577,989.4442 C399.342,999.9745 427.456,1015.0559 453,1026 C461.949,1029.8342 471.614,1033.5192 481.061,1036.8856 " fill="none" id="PIXIRenderer-&gt;graphics/PlayerCharacter" style="stroke: #000000; stroke-width: 0.5;"/><polygon fill="#000000" points="485.976,1038.616,478.8145,1031.8548,481.2596,1036.956,476.1585,1039.401,485.976,1038.616" style="stroke: #000000; stroke-width: 0.5;"/><!--MD5=[22ccbbfd8cb575889e22d860ac9f7b81]
link PIXIRenderer to pixi--><path d="M412.907,975.96 C550.98,972.858 909.562,961.889 953,931 C1031.39,875.255 1054.78,751.429 1061.23,700.522 " fill="none" id="PIXIRenderer-&gt;pixi" style="stroke: #000000; stroke-width: 0.5;"/><polygon fill="#000000" points="1061.87,695.255,1056.8156,703.708,1061.2681,700.2186,1064.7575,704.6711,1061.87,695.255" style="stroke: #000000; stroke-width: 0.5;"/><!--MD5=[617d44490e3ad6c0f421593b159eb62f]
link <b>server</b> to esm--><path d="M75.3476,256.277 C120.686,230.089 244.67,165 357,165 C357,165 357,165 720,165 C776.869,165 909.059,208.397 953,274 C980.138,314.517 936.12,455.257 967,493 C983.58,513.264 1014.14,518.673 1036.44,519.698 " fill="none" id="&lt;b&gt;server&lt;/b&gt;-&gt;esm" style="stroke: #000000; stroke-width: 1.0;"/><polygon fill="#000000" points="1041.64,519.865,1032.7824,515.5588,1036.6429,519.6936,1032.5082,523.5541,1041.64,519.865" style="stroke: #000000; stroke-width: 1.0;"/><!--MD5=[2625fb22c021de77c01e1bc6fd2c2e91]
link <b>server</b> to serverMain--><path d="M56.5,280.236 C56.5,318.405 56.5,356.573 56.5,394.742 " fill="none" id="&lt;b&gt;server&lt;/b&gt;-&gt;serverMain" style="stroke: #000000; stroke-width: 1.0;"/><polygon fill="#000000" points="56.5,399.883,60.5,390.883,56.5,394.883,52.5,390.883,56.5,399.883" style="stroke: #000000; stroke-width: 1.0;"/><!--MD5=[1ffe55f63801c0150d93232aa1a54309]
link serverMain to GameInstance--><path d="M102.7395,413 C114.419,413 127.207,413 139.625,413 " fill="none" id="serverMain-&gt;GameInstance" style="stroke: #000000; stroke-width: 0.5;"/><polygon fill="#000000" points="144.92,413,135.92,409,139.92,413,135.92,417,144.92,413" style="stroke: #000000; stroke-width: 0.5;"/><!--MD5=[a07f34db95a01a028e789b384a414d5c]
link serverMain to nengiConfig--><path d="M78.558,424.604 C120.622,447.721 218.124,501 301,544 C309.955,548.646 319.777,553.604 328.661,558.036 " fill="none" id="serverMain-&gt;nengiConfig" style="stroke: #000000; stroke-width: 0.5;"/><polygon fill="#000000" points="333.489,560.44,327.2154,552.8478,329.0132,558.2114,323.6496,560.0091,333.489,560.44" style="stroke: #000000; stroke-width: 0.5;"/><!--MD5=[d03e0f412b0fbd883ad39e7252d2f87c]
link Simulator to entity/Obstacle--><path d="M222.252,801.223 C258.266,776.591 343.993,717.707 415,667 C449.184,642.589 488.353,613.688 512.384,595.847 " fill="none" id="Simulator-&gt;entity/Obstacle" style="stroke: #000000; stroke-width: 0.5;"/><polygon fill="#000000" points="516.399,592.865,506.7892,595.0216,512.3855,595.8469,511.5602,601.4432,516.399,592.865" style="stroke: #000000; stroke-width: 0.5;"/><!--MD5=[981b38aa76076f48ff8ad16fdce9c4fe]
link Simulator to entity/PlayerCharacter--><path d="M213.793,800.325 C229.864,777.544 265.597,728.639 301,692 C347.227,644.159 366.689,640.735 415,595 C432.807,578.142 433.922,570.405 453,555 C467.46,543.323 484.875,532.335 499.929,523.651 " fill="none" id="Simulator-&gt;entity/PlayerCharacter" style="stroke: #000000; stroke-width: 0.5;"/><polygon fill="#000000" points="504.519,521.031,494.7197,522.0181,500.1765,523.5094,498.6851,528.9661,504.519,521.031" style="stroke: #000000; stroke-width: 0.5;"/><!--MD5=[595e72c4751dfdd44e10653bfed7bc26]
link Simulator to FireCommand--><path d="M219.781,825.271 C237.692,839.265 269.411,861.329 301,870 C349.859,883.412 365.45,880.578 415,870 C433.094,866.137 435.82,859.868 453,853 C467.236,847.309 483.078,841.571 497.013,836.718 " fill="none" id="Simulator-&gt;FireCommand" style="stroke: #000000; stroke-width: 0.5;"/><polygon fill="#000000" points="502.054,834.971,492.2405,834.1375,497.3295,836.6077,494.8592,841.6967,502.054,834.971" style="stroke: #000000; stroke-width: 0.5;"/><!--MD5=[92f3e65b9ac8688cb4c9676a9e64a0fe]
link Simulator to InputSystem--><path d="M246.133,813 C262.069,813 280.616,813 297.928,813 " fill="none" id="Simulator-&gt;InputSystem" style="stroke: #000000; stroke-width: 0.5;"/><polygon fill="#000000" points="303.257,813,294.257,809,298.257,813,294.257,817,303.257,813" style="stroke: #000000; stroke-width: 0.5;"/><!--MD5=[6dc5393ea9d70dff231b03405917e299]
link Simulator to MoveCommand--><path d="M236.046,804.533 C294.764,788.519 422.279,753.742 490.242,735.207 " fill="none" id="Simulator-&gt;MoveCommand" style="stroke: #000000; stroke-width: 0.5;"/><polygon fill="#000000" points="495.431,733.792,485.6957,732.301,490.6072,735.1076,487.8006,740.0191,495.431,733.792" style="stroke: #000000; stroke-width: 0.5;"/><!--MD5=[52dbfa0a4d48460a8fe676447b3d6cb3]
link Simulator to PIXIRenderer--><path d="M216.675,825.596 C243.663,854.715 310.401,926.722 341.093,959.837 " fill="none" id="Simulator-&gt;PIXIRenderer" style="stroke: #000000; stroke-width: 0.5;"/><polygon fill="#000000" points="344.652,963.677,341.4682,954.357,341.2533,960.0097,335.6005,959.7949,344.652,963.677" style="stroke: #000000; stroke-width: 0.5;"/><!--MD5=[e01da65142f75854143bed7f19329252]
link Simulator to SpecialFireCommand--><path d="M230.572,823.258 C271.152,837.922 352.135,860.539 415,836 C436.389,827.651 433.203,812.631 453,801 C461.473,796.022 470.986,791.822 480.449,788.329 " fill="none" id="Simulator-&gt;SpecialFireCommand" style="stroke: #000000; stroke-width: 0.5;"/><polygon fill="#000000" points="485.387,786.567,475.5663,785.8231,480.6776,788.2468,478.2539,793.3581,485.387,786.567" style="stroke: #000000; stroke-width: 0.5;"/><!--MD5=[71f61c16ebcfd885126adda3275ced82]
link SpecialFireCommand to nengi--><path d="M606.89,778.637 C712.155,784.016 904.286,787.076 953,742 C982.713,714.507 940.121,682.269 967,652 C983.576,633.334 1011.89,627.11 1033.57,625.245 " fill="none" id="SpecialFireCommand-&gt;nengi" style="stroke: #000000; stroke-width: 0.5;"/><polygon fill="#000000" points="1038.65,624.877,1029.3873,621.5301,1033.6628,625.2341,1029.9587,629.5097,1038.65,624.877" style="stroke: #000000; stroke-width: 0.5;"/><!--MD5=[d54bef18e73efe97b8c9d58ecab2157a]
link stressBot to MoveCommand--><path d="M233.421,623.388 C292.201,642.803 427.277,687.419 494.899,709.755 " fill="none" id="stressBot-&gt;MoveCommand" style="stroke: #000000; stroke-width: 0.5;"/><polygon fill="#000000" points="499.649,711.324,492.3584,704.7023,494.9015,709.7553,489.8485,712.2984,499.649,711.324" style="stroke: #000000; stroke-width: 0.5;"/><!--MD5=[610c2359f2c9ff795a4afe1a5719c6ad]
link stressBot to nengi--><path d="M246.24,616.328 C295.447,619.068 380.213,623.665 453,627 C543.641,631.153 566.287,632.942 657,635 C728.983,636.633 746.999,635.778 819,636 C878.555,636.184 893.518,638.953 953,636 C980.452,634.637 1011.6,631.38 1033.81,628.762 " fill="none" id="stressBot-&gt;nengi" style="stroke: #000000; stroke-width: 0.5;"/><polygon fill="#000000" points="1038.97,628.146,1029.5551,625.2548,1034.0061,628.746,1030.515,633.197,1038.97,628.146" style="stroke: #000000; stroke-width: 0.5;"/><!--MD5=[d11f54ca4e461872e43fd7c9296c7e3f]
link stressBot to nengiConfig--><path d="M236.126,605.399 C259.74,598.875 292.358,589.862 317.759,582.843 " fill="none" id="stressBot-&gt;nengiConfig" style="stroke: #000000; stroke-width: 0.5;"/><polygon fill="#000000" points="322.739,581.467,312.9987,580.0085,317.9196,582.7987,315.1294,587.7195,322.739,581.467" style="stroke: #000000; stroke-width: 0.5;"/><!--MD5=[1857be7067421feae9d429a659df3ee6]
link WeaponFired to nengi--><path d="M586.238,323.371 C637.006,319.56 717.493,319.167 781,345 C874.148,382.89 905.067,403.6 953,492 C975.861,534.162 935.416,562.907 967,599 C983.502,617.858 1012.1,623.713 1033.89,625.235 " fill="none" id="WeaponFired-&gt;nengi" style="stroke: #000000; stroke-width: 0.5;"/><polygon fill="#000000" points="1038.99,625.522,1030.2333,621.0142,1033.9982,625.2363,1029.7761,629.0011,1038.99,625.522" style="stroke: #000000; stroke-width: 0.5;"/><!--MD5=[ea35c4487081ce5aafb7dfa9ab97bfc3]
link <b>webpack.dev</b> to webpack-merge--><path d="M930.246,31.2 C938.673,34.67 946.802,39.44 953,46 C1048.59,147.125 1061.74,327.932 1063.36,390.76 " fill="none" id="&lt;b&gt;webpack.dev&lt;/b&gt;-&gt;webpack-merge" style="stroke: #000000; stroke-width: 1.0;"/><polygon fill="#000000" points="1063.47,395.775,1067.2711,386.6892,1063.36,390.7762,1059.273,386.8652,1063.47,395.775" style="stroke: #000000; stroke-width: 1.0;"/><!--MD5=[629ce153a9044a20670238535443d5ef]
link <b>webpack.dev</b> to webpack.common--><path d="M836.688,29.57 C822.203,34.43 808.087,42.41 800,55.5 C793.224,66.46 793.224,73.54 800,84.5 C806.672,95.296 817.35,102.809 828.945,108.037 " fill="none" id="&lt;b&gt;webpack.dev&lt;/b&gt;-&gt;webpack.common" style="stroke: #000000; stroke-width: 1.0;"/><polygon fill="#000000" points="833.605,110.001,826.8665,102.8182,828.9979,108.0582,823.7579,110.1896,833.605,110.001" style="stroke: #000000; stroke-width: 1.0;"/><!--MD5=[f17607fcde9fce6c4869767624f528ca]
link <b>webpack.prod</b> to terser-webpack-plugin--><path d="M932.951,79.4 C940.777,83.02 947.984,88.043 953,95 C975.436,126.121 943.053,410.026 967,440 C972.202,446.511 978.849,451.494 986.215,455.293 " fill="none" id="&lt;b&gt;webpack.prod&lt;/b&gt;-&gt;terser-webpack-plugin" style="stroke: #000000; stroke-width: 1.0;"/><polygon fill="#000000" points="990.889,457.509,984.47,450.0393,986.371,455.3672,981.0431,457.2681,990.889,457.509" style="stroke: #000000; stroke-width: 1.0;"/><!--MD5=[d40b0c759c8f993fde9ca1d32f3153b4]
link <b>webpack.prod</b> to webpack-merge--><path d="M930.058,80.09 C938.496,83.67 946.678,88.501 953,95 C1036.7,181.043 1057.22,333.695 1062.06,390.705 " fill="none" id="&lt;b&gt;webpack.prod&lt;/b&gt;-&gt;webpack-merge" style="stroke: #000000; stroke-width: 1.0;"/><polygon fill="#000000" points="1062.49,395.918,1065.7521,386.6251,1062.0873,390.9342,1057.7781,387.2694,1062.49,395.918" style="stroke: #000000; stroke-width: 1.0;"/><!--MD5=[17e3fc858cc2d2adab4f7b0db78af15b]
link <b>webpack.prod</b> to webpack.common--><path d="M886,84.6 C886,89.347 886,94.092 886,98.836 " fill="none" id="&lt;b&gt;webpack.prod&lt;/b&gt;-&gt;webpack.common" style="stroke: #000000; stroke-width: 1.0;"/><polygon fill="#000000" points="886,103.984,890,94.984,886,98.984,882,94.984,886,103.984" style="stroke: #000000; stroke-width: 1.0;"/><script type="text/plantuml"><![CDATA[MD5=[837327dc39a96fb4054441e80bc4cad6]
@startuml

scale max 1920 width
left to right direction

skinparam nodesep 19
skinparam ranksep 38
skinparam monochrome true
skinparam shadowing false
skinparam defaultFontName Tahoma
skinparam defaultFontSize 12
skinparam roundCorner 6
skinparam dpi 150
skinparam arrowColor black
skinparam arrowThickness 0.5
skinparam packageTitleAlignment left

skinparam usecase {
  borderThickness 0.5
}

skinparam rectangle {
  borderThickness 0.5
}

skinparam component {
  borderThickness 1
}


(BackgroundGrid)
(<b>bot</b>)
(<b>clientMain</b>)
(CollisionSystem)
(damagePlayer)
(entity/Obstacle)
(entity/PlayerCharacter)
(FireCommand)
(followPath)
(GameClient)
(GameInstance)
(graphics/Obstacle)
(graphics/PlayerCharacter)
(HitpointBar)
(Identity)
(InputSystem)
(MoveCommand)
(nengiConfig)
(PIXIRenderer)
(<b>server</b>)
(serverMain)
(Simulator)
(SpecialFireCommand)
(stressBot)
(WeaponFired)
(WeaponSystem)
(webpack.common)
(<b>webpack.dev</b>)
(<b>webpack.prod</b>)

package "Dependencies" {
  [esm]
  [nengi]
  [pixi]
  [sat]
  [terser-webpack-plugin]
  [webpack-merge]
}

(BackgroundGrid) ----> [pixi]
(<b>bot</b>) ---[thickness=1]> [esm]
(<b>bot</b>) -[thickness=1]> (stressBot)
(<b>clientMain</b>) -[thickness=1]> (GameClient)
(CollisionSystem) ---> [sat]
(entity/Obstacle) ----> [nengi]
(entity/Obstacle) ----> [sat]
(entity/PlayerCharacter) --> (CollisionSystem)
(entity/PlayerCharacter) ----> [nengi]
(entity/PlayerCharacter) ----> [sat]
(entity/PlayerCharacter) --> (WeaponSystem)
(FireCommand) ----> [nengi]
(GameClient) ---> [nengi]
(GameClient) --> (nengiConfig)
(GameClient) --> (Simulator)
(GameInstance) --> (CollisionSystem)
(GameInstance) --> (damagePlayer)
(GameInstance) ---> (entity/Obstacle)
(GameInstance) ---> (entity/PlayerCharacter)
(GameInstance) --> (followPath)
(GameInstance) ---> (Identity)
(GameInstance) ---> [nengi]
(GameInstance) --> (nengiConfig)
(GameInstance) ---> (WeaponFired)
(graphics/Obstacle) ----> [pixi]
(graphics/PlayerCharacter) --> (HitpointBar)
(graphics/PlayerCharacter) ----> [pixi]
(HitpointBar) ----> [pixi]
(Identity) ----> [nengi]
(MoveCommand) ----> [nengi]
(nengiConfig) --> (entity/Obstacle)
(nengiConfig) --> (entity/PlayerCharacter)
(nengiConfig) --> (FireCommand)
(nengiConfig) --> (Identity)
(nengiConfig) --> (MoveCommand)
(nengiConfig) ---> [nengi]
(nengiConfig) --> (SpecialFireCommand)
(nengiConfig) --> (WeaponFired)
(PIXIRenderer) --> (BackgroundGrid)
(PIXIRenderer) --> (graphics/Obstacle)
(PIXIRenderer) --> (graphics/PlayerCharacter)
(PIXIRenderer) ----> [pixi]
(<b>server</b>) ---[thickness=1]> [esm]
(<b>server</b>) -[thickness=1]> (serverMain)
(serverMain) --> (GameInstance)
(serverMain) --> (nengiConfig)
(Simulator) ---> (entity/Obstacle)
(Simulator) ---> (entity/PlayerCharacter)
(Simulator) ---> (FireCommand)
(Simulator) --> (InputSystem)
(Simulator) ---> (MoveCommand)
(Simulator) --> (PIXIRenderer)
(Simulator) ---> (SpecialFireCommand)
(SpecialFireCommand) ----> [nengi]
(stressBot) ---> (MoveCommand)
(stressBot) ---> [nengi]
(stressBot) --> (nengiConfig)
(WeaponFired) ----> [nengi]
(<b>webpack.dev</b>) --[thickness=1]> [webpack-merge]
(<b>webpack.dev</b>) -[thickness=1]> (webpack.common)
(<b>webpack.prod</b>) --[thickness=1]> [terser-webpack-plugin]
(<b>webpack.prod</b>) --[thickness=1]> [webpack-merge]
(<b>webpack.prod</b>) -[thickness=1]> (webpack.common)

@enduml


' View and edit on https://arkit.pro
]]></script></g></svg>